<mxfile host="app.diagrams.net" modified="2023-03-08T19:44:50.832Z" agent="5.0 (Macintosh; Intel Mac OS X 10_15_7) AppleWebKit/605.1.15 (KHTML, like Gecko) Version/16.1 Safari/605.1.15" etag="1t9sXA7ndcLSPvfKlz3h" version="20.8.23" type="github">
  <diagram name="Page-1" id="KY6UGwWsy6HudI1h1nBM">
    <mxGraphModel dx="2330" dy="1230" grid="1" gridSize="10" guides="1" tooltips="1" connect="1" arrows="1" fold="1" page="1" pageScale="1" pageWidth="850" pageHeight="1100" math="0" shadow="0">
      <root>
        <mxCell id="0" />
        <mxCell id="1" parent="0" />
        <mxCell id="WJkEbxPwfmSc1Bo30Y7H-26" value="" style="rounded=1;whiteSpace=wrap;html=1;fillColor=#ffe6cc;strokeColor=#d79b00;opacity=30;" parent="1" vertex="1">
          <mxGeometry x="60" y="20" width="320" height="460" as="geometry" />
        </mxCell>
        <mxCell id="WJkEbxPwfmSc1Bo30Y7H-3" style="edgeStyle=orthogonalEdgeStyle;rounded=0;orthogonalLoop=1;jettySize=auto;html=1;exitX=0.5;exitY=1;exitDx=0;exitDy=0;" parent="1" source="WJkEbxPwfmSc1Bo30Y7H-1" edge="1">
          <mxGeometry relative="1" as="geometry">
            <mxPoint x="140" y="120" as="targetPoint" />
          </mxGeometry>
        </mxCell>
        <mxCell id="WJkEbxPwfmSc1Bo30Y7H-8" style="edgeStyle=orthogonalEdgeStyle;rounded=0;orthogonalLoop=1;jettySize=auto;html=1;exitX=0.5;exitY=1;exitDx=0;exitDy=0;entryX=0.5;entryY=1;entryDx=0;entryDy=0;" parent="1" source="WJkEbxPwfmSc1Bo30Y7H-1" target="WJkEbxPwfmSc1Bo30Y7H-4" edge="1">
          <mxGeometry relative="1" as="geometry" />
        </mxCell>
        <mxCell id="WJkEbxPwfmSc1Bo30Y7H-1" value="Image" style="rounded=0;whiteSpace=wrap;html=1;" parent="1" vertex="1">
          <mxGeometry x="80" y="40" width="120" height="80" as="geometry" />
        </mxCell>
        <mxCell id="WJkEbxPwfmSc1Bo30Y7H-9" style="edgeStyle=orthogonalEdgeStyle;rounded=0;orthogonalLoop=1;jettySize=auto;html=1;exitX=0.5;exitY=0;exitDx=0;exitDy=0;entryX=0.5;entryY=0;entryDx=0;entryDy=0;" parent="1" source="WJkEbxPwfmSc1Bo30Y7H-4" target="WJkEbxPwfmSc1Bo30Y7H-5" edge="1">
          <mxGeometry relative="1" as="geometry" />
        </mxCell>
        <mxCell id="WJkEbxPwfmSc1Bo30Y7H-10" style="edgeStyle=orthogonalEdgeStyle;rounded=0;orthogonalLoop=1;jettySize=auto;html=1;exitX=0.5;exitY=0;exitDx=0;exitDy=0;entryX=0.5;entryY=1;entryDx=0;entryDy=0;" parent="1" source="WJkEbxPwfmSc1Bo30Y7H-4" target="WJkEbxPwfmSc1Bo30Y7H-6" edge="1">
          <mxGeometry relative="1" as="geometry">
            <Array as="points">
              <mxPoint x="140" y="210" />
              <mxPoint x="100" y="210" />
              <mxPoint x="100" y="270" />
              <mxPoint x="140" y="270" />
            </Array>
          </mxGeometry>
        </mxCell>
        <mxCell id="WJkEbxPwfmSc1Bo30Y7H-4" value="Analysis&lt;br&gt;Encoder" style="shape=trapezoid;perimeter=trapezoidPerimeter;whiteSpace=wrap;html=1;fixedSize=1;direction=west;" parent="1" vertex="1">
          <mxGeometry x="80" y="140" width="120" height="60" as="geometry" />
        </mxCell>
        <mxCell id="WJkEbxPwfmSc1Bo30Y7H-16" style="edgeStyle=orthogonalEdgeStyle;rounded=0;orthogonalLoop=1;jettySize=auto;html=1;exitX=1;exitY=0.5;exitDx=0;exitDy=0;entryX=0;entryY=0.5;entryDx=0;entryDy=0;" parent="1" source="WJkEbxPwfmSc1Bo30Y7H-5" target="WJkEbxPwfmSc1Bo30Y7H-12" edge="1">
          <mxGeometry relative="1" as="geometry" />
        </mxCell>
        <mxCell id="WJkEbxPwfmSc1Bo30Y7H-17" style="edgeStyle=orthogonalEdgeStyle;rounded=0;orthogonalLoop=1;jettySize=auto;html=1;exitX=1;exitY=0.5;exitDx=0;exitDy=0;" parent="1" source="WJkEbxPwfmSc1Bo30Y7H-5" target="WJkEbxPwfmSc1Bo30Y7H-14" edge="1">
          <mxGeometry relative="1" as="geometry" />
        </mxCell>
        <mxCell id="WJkEbxPwfmSc1Bo30Y7H-5" value="Q" style="rounded=0;whiteSpace=wrap;html=1;" parent="1" vertex="1">
          <mxGeometry x="120" y="220" width="40" height="40" as="geometry" />
        </mxCell>
        <mxCell id="WJkEbxPwfmSc1Bo30Y7H-11" style="edgeStyle=orthogonalEdgeStyle;rounded=0;orthogonalLoop=1;jettySize=auto;html=1;exitX=0.5;exitY=0;exitDx=0;exitDy=0;entryX=0.5;entryY=0;entryDx=0;entryDy=0;" parent="1" source="WJkEbxPwfmSc1Bo30Y7H-6" target="WJkEbxPwfmSc1Bo30Y7H-7" edge="1">
          <mxGeometry relative="1" as="geometry" />
        </mxCell>
        <mxCell id="WJkEbxPwfmSc1Bo30Y7H-6" value="Hyper&lt;br&gt;Encoder" style="shape=trapezoid;perimeter=trapezoidPerimeter;whiteSpace=wrap;html=1;fixedSize=1;direction=west;" parent="1" vertex="1">
          <mxGeometry x="80" y="280" width="120" height="60" as="geometry" />
        </mxCell>
        <mxCell id="WJkEbxPwfmSc1Bo30Y7H-23" style="edgeStyle=orthogonalEdgeStyle;rounded=0;orthogonalLoop=1;jettySize=auto;html=1;exitX=1;exitY=0.5;exitDx=0;exitDy=0;entryX=1;entryY=0.5;entryDx=0;entryDy=0;" parent="1" source="WJkEbxPwfmSc1Bo30Y7H-7" target="WJkEbxPwfmSc1Bo30Y7H-20" edge="1">
          <mxGeometry relative="1" as="geometry" />
        </mxCell>
        <mxCell id="WJkEbxPwfmSc1Bo30Y7H-25" style="edgeStyle=orthogonalEdgeStyle;rounded=0;orthogonalLoop=1;jettySize=auto;html=1;exitX=1;exitY=0.5;exitDx=0;exitDy=0;entryX=0;entryY=0.5;entryDx=0;entryDy=0;" parent="1" source="WJkEbxPwfmSc1Bo30Y7H-7" target="WJkEbxPwfmSc1Bo30Y7H-24" edge="1">
          <mxGeometry relative="1" as="geometry" />
        </mxCell>
        <mxCell id="WJkEbxPwfmSc1Bo30Y7H-7" value="Q" style="rounded=0;whiteSpace=wrap;html=1;" parent="1" vertex="1">
          <mxGeometry x="120" y="360" width="40" height="40" as="geometry" />
        </mxCell>
        <mxCell id="9MnYl7FSJ5CDIWRbCC_x-1" style="edgeStyle=orthogonalEdgeStyle;rounded=0;orthogonalLoop=1;jettySize=auto;html=1;exitX=1;exitY=0.5;exitDx=0;exitDy=0;entryX=0;entryY=0.5;entryDx=0;entryDy=0;" edge="1" parent="1" source="WJkEbxPwfmSc1Bo30Y7H-12" target="WJkEbxPwfmSc1Bo30Y7H-58">
          <mxGeometry relative="1" as="geometry" />
        </mxCell>
        <mxCell id="WJkEbxPwfmSc1Bo30Y7H-12" value="AE" style="rounded=0;whiteSpace=wrap;html=1;" parent="1" vertex="1">
          <mxGeometry x="280" y="220" width="50" height="40" as="geometry" />
        </mxCell>
        <mxCell id="WJkEbxPwfmSc1Bo30Y7H-19" style="edgeStyle=orthogonalEdgeStyle;rounded=0;orthogonalLoop=1;jettySize=auto;html=1;exitX=1;exitY=0.5;exitDx=0;exitDy=0;entryX=0;entryY=0.5;entryDx=0;entryDy=0;" parent="1" source="WJkEbxPwfmSc1Bo30Y7H-14" target="WJkEbxPwfmSc1Bo30Y7H-15" edge="1">
          <mxGeometry relative="1" as="geometry" />
        </mxCell>
        <mxCell id="WJkEbxPwfmSc1Bo30Y7H-14" value="CTXm,1" style="rounded=0;whiteSpace=wrap;html=1;" parent="1" vertex="1">
          <mxGeometry x="210" y="290" width="50" height="40" as="geometry" />
        </mxCell>
        <mxCell id="WJkEbxPwfmSc1Bo30Y7H-18" style="edgeStyle=orthogonalEdgeStyle;rounded=0;orthogonalLoop=1;jettySize=auto;html=1;exitX=0.5;exitY=0;exitDx=0;exitDy=0;entryX=0.5;entryY=1;entryDx=0;entryDy=0;" parent="1" source="WJkEbxPwfmSc1Bo30Y7H-15" target="WJkEbxPwfmSc1Bo30Y7H-12" edge="1">
          <mxGeometry relative="1" as="geometry" />
        </mxCell>
        <mxCell id="WJkEbxPwfmSc1Bo30Y7H-15" value="EP1" style="rounded=0;whiteSpace=wrap;html=1;" parent="1" vertex="1">
          <mxGeometry x="280" y="290" width="50" height="40" as="geometry" />
        </mxCell>
        <mxCell id="WJkEbxPwfmSc1Bo30Y7H-22" style="edgeStyle=orthogonalEdgeStyle;rounded=0;orthogonalLoop=1;jettySize=auto;html=1;exitX=0.5;exitY=1;exitDx=0;exitDy=0;entryX=0.5;entryY=1;entryDx=0;entryDy=0;" parent="1" source="WJkEbxPwfmSc1Bo30Y7H-20" target="WJkEbxPwfmSc1Bo30Y7H-15" edge="1">
          <mxGeometry relative="1" as="geometry" />
        </mxCell>
        <mxCell id="WJkEbxPwfmSc1Bo30Y7H-20" value="Hyper&lt;br&gt;Synthesis" style="shape=trapezoid;perimeter=trapezoidPerimeter;whiteSpace=wrap;html=1;fixedSize=1;direction=west;" parent="1" vertex="1">
          <mxGeometry x="245" y="350" width="120" height="60" as="geometry" />
        </mxCell>
        <mxCell id="WJkEbxPwfmSc1Bo30Y7H-46" style="edgeStyle=orthogonalEdgeStyle;rounded=0;orthogonalLoop=1;jettySize=auto;html=1;exitX=1;exitY=0.5;exitDx=0;exitDy=0;entryX=0;entryY=0.5;entryDx=0;entryDy=0;" parent="1" source="WJkEbxPwfmSc1Bo30Y7H-24" target="WJkEbxPwfmSc1Bo30Y7H-28" edge="1">
          <mxGeometry relative="1" as="geometry">
            <mxPoint x="410" y="450" as="targetPoint" />
          </mxGeometry>
        </mxCell>
        <mxCell id="WJkEbxPwfmSc1Bo30Y7H-24" value="AE" style="rounded=0;whiteSpace=wrap;html=1;" parent="1" vertex="1">
          <mxGeometry x="280" y="430" width="50" height="40" as="geometry" />
        </mxCell>
        <mxCell id="WJkEbxPwfmSc1Bo30Y7H-27" value="Encoder" style="text;html=1;align=center;verticalAlign=middle;resizable=0;points=[];autosize=1;strokeColor=none;fillColor=none;" parent="1" vertex="1">
          <mxGeometry x="80" y="460" width="70" height="30" as="geometry" />
        </mxCell>
        <mxCell id="WJkEbxPwfmSc1Bo30Y7H-36" value="" style="group" parent="1" vertex="1" connectable="0">
          <mxGeometry x="430" y="445" width="70" height="25" as="geometry" />
        </mxCell>
        <mxCell id="WJkEbxPwfmSc1Bo30Y7H-28" value="" style="rounded=0;whiteSpace=wrap;html=1;" parent="WJkEbxPwfmSc1Bo30Y7H-36" vertex="1">
          <mxGeometry width="10" height="10" as="geometry" />
        </mxCell>
        <mxCell id="WJkEbxPwfmSc1Bo30Y7H-30" value="" style="rounded=0;whiteSpace=wrap;html=1;fillColor=#000000;" parent="WJkEbxPwfmSc1Bo30Y7H-36" vertex="1">
          <mxGeometry x="10" width="10" height="10" as="geometry" />
        </mxCell>
        <mxCell id="WJkEbxPwfmSc1Bo30Y7H-31" value="" style="rounded=0;whiteSpace=wrap;html=1;" parent="WJkEbxPwfmSc1Bo30Y7H-36" vertex="1">
          <mxGeometry x="20" width="10" height="10" as="geometry" />
        </mxCell>
        <mxCell id="WJkEbxPwfmSc1Bo30Y7H-32" value="" style="rounded=0;whiteSpace=wrap;html=1;fillColor=#000000;" parent="WJkEbxPwfmSc1Bo30Y7H-36" vertex="1">
          <mxGeometry x="30" width="10" height="10" as="geometry" />
        </mxCell>
        <mxCell id="WJkEbxPwfmSc1Bo30Y7H-33" value="" style="rounded=0;whiteSpace=wrap;html=1;" parent="WJkEbxPwfmSc1Bo30Y7H-36" vertex="1">
          <mxGeometry x="40" width="10" height="10" as="geometry" />
        </mxCell>
        <mxCell id="WJkEbxPwfmSc1Bo30Y7H-34" value="" style="rounded=0;whiteSpace=wrap;html=1;fillColor=#000000;" parent="WJkEbxPwfmSc1Bo30Y7H-36" vertex="1">
          <mxGeometry x="50" width="10" height="10" as="geometry" />
        </mxCell>
        <mxCell id="WJkEbxPwfmSc1Bo30Y7H-35" value="" style="rounded=0;whiteSpace=wrap;html=1;" parent="WJkEbxPwfmSc1Bo30Y7H-36" vertex="1">
          <mxGeometry x="60" width="10" height="10" as="geometry" />
        </mxCell>
        <mxCell id="9MnYl7FSJ5CDIWRbCC_x-4" style="edgeStyle=orthogonalEdgeStyle;rounded=0;orthogonalLoop=1;jettySize=auto;html=1;exitX=0.5;exitY=0;exitDx=0;exitDy=0;entryX=0.5;entryY=0;entryDx=0;entryDy=0;" edge="1" parent="1" source="WJkEbxPwfmSc1Bo30Y7H-47" target="WJkEbxPwfmSc1Bo30Y7H-48">
          <mxGeometry relative="1" as="geometry" />
        </mxCell>
        <mxCell id="WJkEbxPwfmSc1Bo30Y7H-47" value="AD" style="rounded=0;whiteSpace=wrap;html=1;" parent="1" vertex="1">
          <mxGeometry x="570" y="430" width="50" height="40" as="geometry" />
        </mxCell>
        <mxCell id="9MnYl7FSJ5CDIWRbCC_x-5" style="edgeStyle=orthogonalEdgeStyle;rounded=0;orthogonalLoop=1;jettySize=auto;html=1;exitX=0.5;exitY=1;exitDx=0;exitDy=0;entryX=0.5;entryY=1;entryDx=0;entryDy=0;" edge="1" parent="1" source="WJkEbxPwfmSc1Bo30Y7H-48" target="WJkEbxPwfmSc1Bo30Y7H-51">
          <mxGeometry relative="1" as="geometry" />
        </mxCell>
        <mxCell id="WJkEbxPwfmSc1Bo30Y7H-48" value="Hyper&lt;br&gt;Synthesis" style="shape=trapezoid;perimeter=trapezoidPerimeter;whiteSpace=wrap;html=1;fixedSize=1;direction=west;" parent="1" vertex="1">
          <mxGeometry x="535" y="350" width="120" height="60" as="geometry" />
        </mxCell>
        <mxCell id="9MnYl7FSJ5CDIWRbCC_x-9" style="edgeStyle=orthogonalEdgeStyle;rounded=0;orthogonalLoop=1;jettySize=auto;html=1;exitX=0.25;exitY=1;exitDx=0;exitDy=0;" edge="1" parent="1" source="WJkEbxPwfmSc1Bo30Y7H-49" target="WJkEbxPwfmSc1Bo30Y7H-50">
          <mxGeometry relative="1" as="geometry">
            <Array as="points">
              <mxPoint x="582" y="270" />
              <mxPoint x="525" y="270" />
            </Array>
          </mxGeometry>
        </mxCell>
        <mxCell id="9MnYl7FSJ5CDIWRbCC_x-44" style="edgeStyle=orthogonalEdgeStyle;rounded=0;orthogonalLoop=1;jettySize=auto;html=1;exitX=1;exitY=0.5;exitDx=0;exitDy=0;entryX=0.537;entryY=1;entryDx=0;entryDy=0;entryPerimeter=0;" edge="1" parent="1" source="WJkEbxPwfmSc1Bo30Y7H-49" target="9MnYl7FSJ5CDIWRbCC_x-43">
          <mxGeometry relative="1" as="geometry">
            <Array as="points">
              <mxPoint x="670" y="240" />
              <mxPoint x="670" y="390" />
              <mxPoint x="780" y="390" />
            </Array>
          </mxGeometry>
        </mxCell>
        <mxCell id="WJkEbxPwfmSc1Bo30Y7H-49" value="AD" style="rounded=0;whiteSpace=wrap;html=1;" parent="1" vertex="1">
          <mxGeometry x="570" y="220" width="50" height="40" as="geometry" />
        </mxCell>
        <mxCell id="9MnYl7FSJ5CDIWRbCC_x-6" style="edgeStyle=orthogonalEdgeStyle;rounded=0;orthogonalLoop=1;jettySize=auto;html=1;exitX=1;exitY=0.5;exitDx=0;exitDy=0;entryX=0;entryY=0.5;entryDx=0;entryDy=0;" edge="1" parent="1" source="WJkEbxPwfmSc1Bo30Y7H-50" target="WJkEbxPwfmSc1Bo30Y7H-51">
          <mxGeometry relative="1" as="geometry" />
        </mxCell>
        <mxCell id="WJkEbxPwfmSc1Bo30Y7H-50" value="CTXm,1" style="rounded=0;whiteSpace=wrap;html=1;" parent="1" vertex="1">
          <mxGeometry x="500" y="290" width="50" height="40" as="geometry" />
        </mxCell>
        <mxCell id="9MnYl7FSJ5CDIWRbCC_x-8" value="" style="edgeStyle=orthogonalEdgeStyle;rounded=0;orthogonalLoop=1;jettySize=auto;html=1;" edge="1" parent="1" source="WJkEbxPwfmSc1Bo30Y7H-51" target="WJkEbxPwfmSc1Bo30Y7H-49">
          <mxGeometry relative="1" as="geometry" />
        </mxCell>
        <mxCell id="WJkEbxPwfmSc1Bo30Y7H-51" value="EP1" style="rounded=0;whiteSpace=wrap;html=1;" parent="1" vertex="1">
          <mxGeometry x="570" y="290" width="50" height="40" as="geometry" />
        </mxCell>
        <mxCell id="WJkEbxPwfmSc1Bo30Y7H-65" value="" style="group" parent="1" vertex="1" connectable="0">
          <mxGeometry x="425" y="235" width="70" height="10" as="geometry" />
        </mxCell>
        <mxCell id="WJkEbxPwfmSc1Bo30Y7H-58" value="" style="rounded=0;whiteSpace=wrap;html=1;" parent="WJkEbxPwfmSc1Bo30Y7H-65" vertex="1">
          <mxGeometry width="10" height="10" as="geometry" />
        </mxCell>
        <mxCell id="WJkEbxPwfmSc1Bo30Y7H-59" value="" style="rounded=0;whiteSpace=wrap;html=1;fillColor=#000000;" parent="WJkEbxPwfmSc1Bo30Y7H-65" vertex="1">
          <mxGeometry x="10" width="10" height="10" as="geometry" />
        </mxCell>
        <mxCell id="WJkEbxPwfmSc1Bo30Y7H-60" value="" style="rounded=0;whiteSpace=wrap;html=1;" parent="WJkEbxPwfmSc1Bo30Y7H-65" vertex="1">
          <mxGeometry x="20" width="10" height="10" as="geometry" />
        </mxCell>
        <mxCell id="WJkEbxPwfmSc1Bo30Y7H-61" value="" style="rounded=0;whiteSpace=wrap;html=1;fillColor=#000000;" parent="WJkEbxPwfmSc1Bo30Y7H-65" vertex="1">
          <mxGeometry x="30" width="10" height="10" as="geometry" />
        </mxCell>
        <mxCell id="WJkEbxPwfmSc1Bo30Y7H-62" value="" style="rounded=0;whiteSpace=wrap;html=1;" parent="WJkEbxPwfmSc1Bo30Y7H-65" vertex="1">
          <mxGeometry x="40" width="10" height="10" as="geometry" />
        </mxCell>
        <mxCell id="WJkEbxPwfmSc1Bo30Y7H-63" value="" style="rounded=0;whiteSpace=wrap;html=1;fillColor=#000000;" parent="WJkEbxPwfmSc1Bo30Y7H-65" vertex="1">
          <mxGeometry x="50" width="10" height="10" as="geometry" />
        </mxCell>
        <mxCell id="WJkEbxPwfmSc1Bo30Y7H-64" value="" style="rounded=0;whiteSpace=wrap;html=1;" parent="WJkEbxPwfmSc1Bo30Y7H-65" vertex="1">
          <mxGeometry x="60" width="10" height="10" as="geometry" />
        </mxCell>
        <mxCell id="9MnYl7FSJ5CDIWRbCC_x-2" value="" style="edgeStyle=orthogonalEdgeStyle;rounded=0;orthogonalLoop=1;jettySize=auto;html=1;" edge="1" parent="1" source="WJkEbxPwfmSc1Bo30Y7H-64" target="WJkEbxPwfmSc1Bo30Y7H-49">
          <mxGeometry relative="1" as="geometry" />
        </mxCell>
        <mxCell id="9MnYl7FSJ5CDIWRbCC_x-3" value="" style="edgeStyle=orthogonalEdgeStyle;rounded=0;orthogonalLoop=1;jettySize=auto;html=1;" edge="1" parent="1" source="WJkEbxPwfmSc1Bo30Y7H-35" target="WJkEbxPwfmSc1Bo30Y7H-47">
          <mxGeometry relative="1" as="geometry" />
        </mxCell>
        <mxCell id="9MnYl7FSJ5CDIWRbCC_x-49" style="edgeStyle=orthogonalEdgeStyle;rounded=0;orthogonalLoop=1;jettySize=auto;html=1;exitX=0.5;exitY=0;exitDx=0;exitDy=0;entryX=0.5;entryY=1;entryDx=0;entryDy=0;" edge="1" parent="1" source="9MnYl7FSJ5CDIWRbCC_x-27" target="9MnYl7FSJ5CDIWRbCC_x-28">
          <mxGeometry relative="1" as="geometry" />
        </mxCell>
        <mxCell id="9MnYl7FSJ5CDIWRbCC_x-27" value="" style="shape=trapezoid;perimeter=trapezoidPerimeter;whiteSpace=wrap;html=1;fixedSize=1;direction=east;" vertex="1" parent="1">
          <mxGeometry x="703.33" y="245" width="140" height="50" as="geometry" />
        </mxCell>
        <mxCell id="9MnYl7FSJ5CDIWRbCC_x-50" style="edgeStyle=orthogonalEdgeStyle;rounded=0;orthogonalLoop=1;jettySize=auto;html=1;exitX=0.5;exitY=0;exitDx=0;exitDy=0;entryX=0.5;entryY=1;entryDx=0;entryDy=0;" edge="1" parent="1" source="9MnYl7FSJ5CDIWRbCC_x-28">
          <mxGeometry relative="1" as="geometry">
            <mxPoint x="773.3299999999999" y="120" as="targetPoint" />
          </mxGeometry>
        </mxCell>
        <mxCell id="9MnYl7FSJ5CDIWRbCC_x-28" value="" style="shape=trapezoid;perimeter=trapezoidPerimeter;whiteSpace=wrap;html=1;fixedSize=1;direction=east;" vertex="1" parent="1">
          <mxGeometry x="723.33" y="170" width="100" height="50" as="geometry" />
        </mxCell>
        <mxCell id="9MnYl7FSJ5CDIWRbCC_x-29" value="Task Mid-point" style="text;html=1;align=center;verticalAlign=middle;resizable=0;points=[];autosize=1;strokeColor=none;fillColor=none;rotation=270;" vertex="1" parent="1">
          <mxGeometry x="920" y="195" width="100" height="30" as="geometry" />
        </mxCell>
        <mxCell id="9MnYl7FSJ5CDIWRbCC_x-30" value="Task Backend" style="text;html=1;align=center;verticalAlign=middle;resizable=0;points=[];autosize=1;strokeColor=none;fillColor=none;rotation=270;" vertex="1" parent="1">
          <mxGeometry x="940" y="195" width="100" height="30" as="geometry" />
        </mxCell>
        <mxCell id="9MnYl7FSJ5CDIWRbCC_x-42" value="&lt;span style=&quot;border-color: var(--border-color); caret-color: rgb(0, 0, 0); color: rgb(0, 0, 0); font-family: Helvetica; font-size: 12px; font-style: normal; font-variant-caps: normal; font-weight: 400; letter-spacing: normal; text-align: center; text-indent: 0px; text-transform: none; word-spacing: 0px; -webkit-text-stroke-width: 0px; text-decoration: none; background-color: rgb(251, 251, 251); float: none; display: inline !important;&quot;&gt;Latent Space&lt;/span&gt;&lt;br style=&quot;border-color: var(--border-color); caret-color: rgb(0, 0, 0); color: rgb(0, 0, 0); font-family: Helvetica; font-size: 12px; font-style: normal; font-variant-caps: normal; font-weight: 400; letter-spacing: normal; text-align: center; text-indent: 0px; text-transform: none; word-spacing: 0px; -webkit-text-stroke-width: 0px; text-decoration: none; background-color: rgb(251, 251, 251);&quot;&gt;&lt;span style=&quot;border-color: var(--border-color); caret-color: rgb(0, 0, 0); color: rgb(0, 0, 0); font-family: Helvetica; font-size: 12px; font-style: normal; font-variant-caps: normal; font-weight: 400; letter-spacing: normal; text-align: center; text-indent: 0px; text-transform: none; word-spacing: 0px; -webkit-text-stroke-width: 0px; text-decoration: none; background-color: rgb(251, 251, 251); float: none; display: inline !important;&quot;&gt;Transform&lt;/span&gt;" style="text;whiteSpace=wrap;html=1;" vertex="1" parent="1">
          <mxGeometry x="960" y="100" width="140" height="60" as="geometry" />
        </mxCell>
        <mxCell id="9MnYl7FSJ5CDIWRbCC_x-47" style="edgeStyle=orthogonalEdgeStyle;rounded=0;orthogonalLoop=1;jettySize=auto;html=1;exitX=0.5;exitY=0;exitDx=0;exitDy=0;" edge="1" parent="1" source="9MnYl7FSJ5CDIWRbCC_x-43" target="9MnYl7FSJ5CDIWRbCC_x-27">
          <mxGeometry relative="1" as="geometry" />
        </mxCell>
        <mxCell id="9MnYl7FSJ5CDIWRbCC_x-43" value="" style="shape=trapezoid;perimeter=trapezoidPerimeter;whiteSpace=wrap;html=1;fixedSize=1;direction=east;" vertex="1" parent="1">
          <mxGeometry x="683.3299999999999" y="320" width="180" height="50" as="geometry" />
        </mxCell>
      </root>
    </mxGraphModel>
  </diagram>
</mxfile>
